Patient4_TMGait_0pt5_01_right_08_EMG.mot
version=1
nRows=23
nColumns=33
inDegrees=no
endheader
time	1LAddLong	2LGlutMax	3LGlutMed	4LIliopsoas	5LSemiMemb	6LBicFemLong	7LRecFem	8LVastMed	9LVastLat	10LGasMed	11LTibAnt	12lTibPost	13LPeroneusLong	14LSol	15LExtDigLong	16LFlexDigLong	17RAddLong	18RGlutMax	19RGlutMed	20RIliopsoas	21RSemiMemb	22RBicFemLong	23RRecFem	24RVastMed	25RVastLat	26RGasMed	27RTibAnt	28RTibPost	29RPeroneusLong	30RSol	31RExtDigLong	32RFlexDigLong
10.562	0.000916	-0.1387	0.082855	0.039673	-0.014648	0.070648	0.17883	-0.007782	0.11673	-0.054321	-0.18784	-0.23453	0.057373	-0.04715	0.44342	-0.076599	-0.083313	0.20416	-1.0759	0.026245	-0.15076	0.11215	0.25513	-0.030823	0.078125	-0.13687	-0.16403	0.31937	-0.52994	2.4043	-0.004272	0.002747
10.563	-0.000916	-0.13962	0.10727	0.070343	-0.018158	0.04364	0.23483	-0.013733	0.10757	-0.08667	-0.28503	-0.14542	0.1001	-0.052338	0.10117	-0.095673	-0.082092	-0.043182	-1.4961	0.044403	-0.27802	0.11459	0.1532	-0.040436	0.070953	-0.074768	-0.2684	0.20935	-0.68909	0.27237	0	-0.000916
10.564	-0.001068	-0.15625	0.10468	0.065613	-0.00351	0.046539	0.25803	-0.005951	0.11459	-0.058899	-0.046844	-0.040741	-0.036163	-0.06897	-0.77209	-0.070496	-0.025635	-0.1619	-1.0051	0.050812	0.13794	-0.11353	0.24948	0.018463	-0.055695	-0.046997	-0.074921	0.052032	-0.47318	-0.78522	0.003204	0.005341
10.565	0.010071	-0.18601	0.10407	0.06012	-0.025787	0.014954	0.16937	-0.00946	0.098419	-0.022583	0.035858	0.037384	-0.14358	-0.17471	-0.77759	-0.053558	0.016479	-0.10346	-0.90591	0.033417	0.20783	-0.21561	0.34897	0.010681	-0.16357	-0.031738	0.29953	0.18784	0.096283	-1.3898	0.003967	0.001068
10.566	0.008392	-0.15991	0.068207	0.021515	0.020142	0.014038	0.15671	-0.009155	0.10437	-0.019226	0.070801	0.081787	-0.085144	-0.27252	-1.2071	-0.045624	0.004272	-0.12726	-2.0956	0.08194	-0.062714	-0.1651	0.29526	0.15549	-0.26535	-0.010376	0.45761	0.1387	0.48187	-1.514	0.005646	-0.005188
10.567	0.002747	-0.19424	0.072632	-0.016022	0.005188	0.005646	0.1886	-0.016327	0.11444	-0.000153	0.019684	0.11719	-0.054474	-0.44693	-0.61523	-0.039978	-0.053864	-0.09079	-1.1368	-0.002289	-0.002441	-0.093231	0.27847	0.17624	-0.20248	0.068054	0.96527	0.018005	0.50903	-1.0701	0.013733	-0.012817
10.568	0.001678	-0.19821	0.067139	0.016327	0.00473	0.007019	0.20142	-0.009766	0.13092	0.044403	0.10513	0.15213	-0.079498	-0.50919	-0.32867	-0.04715	-0.045929	-0.041656	-1.517	-0.016937	0.009613	-0.18066	0.29251	0.14847	-0.11917	-0.024261	0.93216	-0.1416	-0.010071	-0.79437	0.003204	-0.02121
10.569	-0.005493	-0.18448	0.084229	-0.007172	-0.001373	-0.008698	0.18234	-0.009918	0.1236	0.024719	-0.005951	0.14175	-0.082397	-0.52826	-0.052948	-0.028992	-0.016785	0.23865	-0.6842	0.018921	-0.021973	-0.1059	0.26657	0.012665	0.016327	-0.048981	0.34576	-0.18021	-0.27542	-1.1687	0.000916	-0.0177
10.57	-0.005341	-0.15915	0.093384	-0.016022	-0.008698	-0.015106	0.074921	-0.006256	0.11398	0.032349	0.25528	0.15884	-0.054932	-0.41336	0.33463	-0.022888	0.0383	0.28427	-0.68497	0.037537	-0.17273	-0.086517	0.30182	-0.13107	0.12299	0.029755	-0.98572	-0.024414	-0.36468	-1.9737	0.00351	-0.023499
10.571	-0.008392	-0.15411	0.085449	-0.003357	-0.00412	-0.034637	-0.008392	-0.006561	0.10239	0.002747	0.29709	0.15106	-0.067902	-0.19745	0.57709	-0.020294	0.062103	0.17716	-0.49118	-0.000763	-0.62775	0.001984	0.30838	-0.010834	0.27329	0.081177	-0.45959	0.1297	-0.51315	-2.0874	0.006866	-0.024261
10.572	-0.011444	-0.15839	0.096588	0.004425	0.008087	-0.033264	-0.015869	-0.010071	0.1001	-0.031738	0.095062	0.2681	0.003204	-0.009155	0.87875	-0.014191	0.01358	0.17517	0.66971	-0.10666	-0.53986	-0.000305	0.38254	-0.039673	0.096893	0.001526	0.14923	0.20035	-0.6337	-1.678	0.00351	-0.030212
10.573	-0.022583	-0.1001	0.091553	-0.013733	0.007019	-0.020905	0.019989	-0.010834	0.097351	-0.018768	-0.25238	0.21957	-0.042877	0.016937	0.8551	-0.013428	-0.010986	0.38223	1.3675	-0.13138	-0.037842	-0.078125	0.33478	-0.11429	0.015259	0.014038	0.089569	-0.3305	-0.24185	-0.72296	0.002136	-0.015869
10.574	-0.00885	-0.085297	0.094299	-0.002747	0.013428	0.02243	0.1149	-0.01297	0.082397	0.002899	-0.21469	0.25375	-0.17197	-0.025787	0.65369	-0.015564	-0.043335	0.43396	0.38711	-0.011444	0.18997	-0.029907	0.1857	-0.12665	0.016327	0.11459	-0.1564	-0.1004	-0.36911	1.4102	-0.001526	-0.011292
10.575	-0.011749	-0.05722	0.10605	-0.013733	0.014496	0.024567	0.15656	-0.001678	0.068817	-0.016479	-0.079956	0.12558	-0.20187	-0.11551	0.35126	-0.008545	-0.029755	0.3183	-1.1707	0.037994	-0.087891	-0.095825	-0.066833	-0.087891	0.095978	0.13779	-0.4483	-0.012512	-0.32166	2.3875	-0.009918	-0.005798
10.576	-0.010834	-0.01236	0.10925	-0.003357	0.006866	0.011444	0.19028	0.001373	0.06424	-0.054016	-0.1297	0.094757	-0.10635	-0.10803	-0.15335	0.002594	-0.001678	0.13855	-1.0178	0.11063	-0.11047	-0.17258	-0.17716	0.024872	0.043488	0.095215	-1.0895	0.13107	0.28748	2.8127	0.001526	-0.011139
10.577	-0.003662	-0.011444	0.10498	0.000916	0.012054	0.000153	0.31128	0.009613	0.092926	-0.03952	0.17944	0.10971	-0.056458	-0.11368	0.28336	0.010529	0.032043	0.15182	0.22797	-0.10986	-0.29175	-0.16266	-0.057526	0.18341	0.007019	0.056152	-0.89584	-0.074158	0.36972	2.8442	0.002136	-0.010223
10.578	-0.006104	0.000305	0.11185	0.010223	0.010376	0.00351	0.39322	0.00412	0.093689	0.005035	0.31555	0.13763	-0.079193	-0.11505	-0.16876	0.032654	0.021973	-0.025787	0.060425	-0.080261	-0.067596	-0.029297	-0.053101	0.19898	-0.08194	0.015259	-0.99335	-0.47852	0.00824	1.9278	0.000458	-0.011597
10.579	0.000153	0.017853	0.11276	0.02182	0.002594	-0.000153	0.27618	0.010223	0.10056	0.027161	0.32425	0.14618	-0.081024	-0.062714	-0.09201	0.041351	-0.079498	-0.30914	-0.35523	0.010681	0.002899	0.24124	-0.036926	0.22797	-0.035095	0.019836	-1.2604	0.1001	-0.058594	0.99564	-0.000305	-0.010223
10.58	0.016022	0.070343	0.077057	0.014343	0	-0.001068	0.023804	0.005341	0.12009	0.038757	0.17487	0.15045	-0.11673	0.037079	-0.011444	0.057831	-0.084534	-0.23941	-0.13031	-0.066986	0.10269	0.14343	-0.1178	0.20996	0.020294	-0.013123	-0.7074	0.45975	-0.053558	0.066071	0.004425	-0.019073
10.581	0.005798	0.13001	0.081482	-0.004578	0.002136	-0.007629	-0.18249	0.014954	0.099335	0.024567	0.15884	0.15839	0.001984	0.090179	0.007782	0.055542	0.000153	-0.16907	0.32471	-0.09552	0.5545	-0.14221	-0.056458	0.045166	-0.003357	-0.023193	0.33539	0.094147	0.066376	-0.43137	0.000916	-0.02533
10.582	0.010834	0.12421	0.071564	-0.00351	-0.000458	-0.008545	-0.21988	0.010529	0.10773	0.02243	-0.050201	0.15274	0.060425	0.030365	-0.094299	0.049744	0.036469	-0.17593	0.31815	-0.012817	0.17517	-0.35461	-0.090179	-0.027618	0.028381	-0.02182	0.92102	0.002136	0.47852	-0.51651	-0.002747	-0.031281
10.583	0.005798	0.10819	0.072937	-0.025635	0.001526	-0.019836	-0.20279	0.012054	0.11429	0.020905	-0.17929	0.17761	0.029144	-0.11658	-0.18417	0.059814	0.027618	-0.19928	0.20966	0.041046	-0.11871	-0.42572	-0.063934	0.019836	0.057373	0.022736	1.2483	0.10849	0.45929	-0.72861	0.001526	-0.032196
10.584	-0.00412	0.15015	0.044098	-0.02121	0.001221	-0.020447	-0.19226	0.015869	0.11337	0.039673	-0.015717	0.19287	-0.032806	-0.10468	-0.17792	0.049591	-0.016327	-0.082703	0.035553	-0.010986	-0.25391	-0.36865	-0.055847	0.083313	0.050049	0.032959	1.1258	0.063934	0.31082	-0.6105	-0.000763	-0.029297
